**ABCDEFGHIJKLMNOPQRSTUVWXYZabcdefghijklmnopqrstuvwxyz**************************
**PARASOLID !"#$%&'()*+,-./:;<=>?@[\]^_`{|}~0123456789**************************
**PART1;
MC=unknown;
MC_MODEL=unknown;
MC_ID=unknown;
OS=unknown;
OS_RELEASE=unknown;
FRU=Parasolid 37.1.212;
APPL=Onshape;
SITE=unknown;
USER=unknown;
FORMAT=text;
GUISE=transmit;
KEY=BTGapi::writeModels_.xmt;
FILE=BTGapi::writeModels_.xmt;
DATE=2026-03-13T10:58:17 (UTC);
**PART2;
SCH=SCH_3701212_37102;
USFLD_SIZE=0;
**PART3;
**END_OF_HEADER*****************************************************************
T51 : TRANSMIT FILE created by modeller version 370121223 SCH_3701212_37102_1300
6239 0 12 36 CCCI7 lattice222 0 CCCI4 mesh1006 0 I8 polyline1008 0 CCCCCCCDI5 ow
ner1040 0 CCCI16 boundary_lattice222 0 CCCI13 boundary_mesh1006 0 I17 boundary_p
olyline1008 0 CCCA16 index_map_offset0 0 1 dA9 index_map82 0 A17 node_id_index_m
ap82 0 A20 schema_embedding_map82 0 A5 child12 0 A14 lowest_node_id0 0 1 dA16 me
sh_offset_data206 0 Z1 2123 2 3 0 0 0 0 0 0 0 1e3 1e-8 0 4 5 1 0 1 2 6 0 7 8 9 0
 0 10 11 12 0 0 0 0 0 0 0 81 255 1 2 2087 13 1 14 0 0 0 15 70 11 CI9 list_type0
 0 1 uI10 notransmit0 0 1 lCCCDCCDI12 finger_index0 0 1 dI12 finger_block1012 0
 CZ3 0 4 T1 0 0 5 20 1 16 16 13 255 6 137 0 1 0 17 0 0 18 0 51 255 7 1100 0 19 2
0 0 0 +.03 .02 .06 0 0 -1 .005 -1 0 0 30 255 8 1324 0 11 21 0 0 +-34694469519536
15e-33 .015 .0575 1 2312964634635745e-31 0 29 255 9 1375 0 12 22 0 -.01125 -3211
84305686991e-33 .06 19 9 CCCCCCI5 frame230 0 CA5 owner12 0 Z10 48 0 1 18 0 23 0
 V0 16 255 11 1322 24 ?25 0 27 8 0 0 1 18 255 12 1373 30 29 0 26 9 ?1 81 1 30 20
25 28 12 0 0 34 35 32 17 255 29 0 33 31 38 12 40 36 0 39 -18 26 1352 37 41 12 45
 22 ?1 81 1 37 2029 28 26 0 0 43 42 44 17 41 0 46 50 48 26 47 49 0 51 -18 45 133
1 55 52 26 53 54 ?1 29 22 1354 0 26 54 9 .0075 -3211843056869905e-34 .06 29 54 1
333 0 45 57 22 .02625 -3211843056869885e-34 .06 29 57 1309 0 53 60 54 -.01125 .0
15 .0575 18 53 1307 59 56 45 58 57 ?1 29 60 1288 0 58 61 57 .0075 .015 .0575 18
 58 1286 62 64 53 63 60 ?1 29 61 1267 0 63 65 60 .02625 .015 .0575 18 63 1265 67
 70 58 69 61 ?1 29 65 1042 0 69 66 61 -.03 .02 .06 18 69 1039 68 75 63 71 65 ?1
 29 66 1033 0 71 73 65 .03 .02 .06 18 71 1030 72 74 69 76 66 ?1 29 73 1024 0 76
 80 66 .035 .02 .055 18 76 1021 77 78 71 79 73 ?1 29 80 1012 0 79 81 73 .03 .025
 .055 18 79 1010 85 83 76 82 80 ?1 29 81 1009 0 82 84 80 -.03 .025 .055 18 82 10
07 89 90 79 87 81 ?1 29 84 996 0 87 88 81 .035 .02 0 18 87 993 86 93 82 95 84 ?1
 29 88 992 0 95 91 84 .03 .025 0 18 95 989 94 92 87 96 88 ?1 29 91 988 0 96 100
 88 -.03 .025 0 18 96 985 98 97 95 99 91 ?1 29 100 979 0 99 101 91 -.035 .02 0 1
8 99 976 105 103 96 102 100 ?1 29 101 975 0 102 104 100 -.035 .02 .055 18 102 97
2 106 110 99 107 101 ?1 29 104 716 0 107 108 101 -.02175 .025 .00825 18 107 714
 109 112 102 115 104 ?1 29 108 698 0 115 114 104 -.02175 .0225 .05175 18 115 696
 111 113 107 116 108 ?1 29 114 524 0 116 117 108 .03 -.025 .06 18 116 521 119 11
8 115 120 114 ?1 29 117 515 0 120 122 114 .035 -.025 .055 18 120 512 125 124 116
 121 117 ?1 29 122 497 0 121 123 117 .0325 .0225 .0525 18 121 494 130 126 120 12
8 122 ?1 29 123 493 0 128 127 122 .0325 -.025 .0525 18 128 490 129 131 121 135 1
23 ?1 29 127 484 0 135 132 123 .0275 .0225 .0575 18 135 481 133 134 128 136 127
 ?1 29 132 480 0 136 140 127 .0275 -.025 .0575 18 136 477 138 137 135 139 132 ?1
 29 140 359 0 139 144 132 -.035 -.025 .055 18 139 356 145 142 136 143 140 ?1 29
 144 350 0 143 141 140 -.03 -.025 .06 18 143 347 148 150 139 146 144 ?1 29 141 3
32 0 146 149 144 -.0275 -.025 .0575 18 146 329 147 151 143 155 141 ?1 29 149 328
 0 155 153 141 -.0275 .0225 .0575 18 155 325 152 154 146 156 149 ?1 29 153 319 0
 156 160 149 -.0325 -.025 .0525 18 156 316 158 157 155 159 153 ?1 29 160 315 0 1
59 161 153 -.0325 .0225 .0525 18 159 312 165 162 156 163 160 ?1 29 161 114 0 163
 164 160 .035 -.025 0 18 163 96 167 170 159 169 161 ?1 29 164 115 0 169 166 161
 -.035 -.025 0 18 169 100 168 171 163 172 164 ?1 29 166 276 0 174 173 164 .0325
 -.025 .0025 18 174 230 175 177 172 180 166 ?1 29 173 277 0 180 179 166 -.0325 -
.025 .0025 18 180 224 176 178 174 185 173 ?1 29 179 279 0 172 181 173 .0325 .022
5 .0025 18 172 222 183 182 169 174 179 ?1 29 181 280 0 185 184 179 -.0325 .0225
 .0025 18 185 226 186 190 180 187 181 ?1 29 184 900 0 187 188 181 .02175 .0225 .
05175 18 187 820 189 191 185 195 184 ?1 29 188 901 0 195 193 184 .02175 .0225 .0
0825 18 195 823 192 194 187 199 188 ?1 29 193 903 0 199 200 188 -.02175 .0225 .0
0825 18 199 826 197 198 195 196 193 ?1 29 200 904 0 196 203 193 -.02175 .025 .05
175 18 196 829 205 201 199 204 200 ?1 29 203 906 0 204 202 200 .02175 .025 .0082
5 18 204 824 206 210 196 208 203 ?1 29 202 907 0 208 207 203 .02175 .025 .05175
 18 208 821 209 211 204 215 202 ?1 29 207 1886 0 215 213 202 -.02625 .015 .0575
 18 215 1508 212 214 208 216 207 ?1 29 213 1887 0 216 220 207 -.02625 -346944695
1953615e-33 .0575 18 216 1511 217 218 215 219 213 ?1 29 220 1889 0 219 222 213 -
.01125 -3211843761886865e-34 .0575 18 219 1514 225 224 216 221 220 ?1 29 222 189
0 0 221 223 220 -.0075 .015 .0575 18 221 1637 226 227 219 229 222 ?1 29 223 1891
 0 229 228 222 -.0075 -3995124773630745e-33 .0575 18 229 1640 230 232 221 235 22
3 ?1 29 228 1893 0 235 234 223 .0075 -3211843761886865e-34 .0575 18 235 1643 231
 233 229 240 228 ?1 29 234 1894 0 240 236 228 .01125 .015 .0575 18 240 1766 238
 237 235 239 234 ?1 29 236 1895 0 239 241 234 .01125 -3995124773630745e-33 .0575
 18 239 1769 245 242 240 243 236 ?1 29 241 1897 0 243 244 236 .02625 -3211843761
886865e-34 .0575 18 243 1772 246 250 239 248 241 ?1 29 244 1898 0 247 249 241 .0
1125 .015 .06 18 247 1767 254 255 252 253 244 ?1 29 249 1899 0 253 251 244 .0112
5 -3995124773630745e-33 .06 18 253 1770 258 260 247 256 249 ?1 29 251 1901 0 256
 259 249 .02625 .015 .06 18 256 1775 257 261 253 0 251 ?1 29 259 1906 0 265 263
 251 .0075 .015 .06 18 265 1646 43 262 264 266 259 ?1 29 263 1908 0 266 270 259
 -.0075 -3995124773630745e-33 .06 18 266 1641 42 48 265 252 263 ?1 29 270 1909 0
 252 268 263 -.0075 .015 .06 18 252 1638 267 269 266 247 270 ?1 29 268 1914 0 24
8 271 270 -.02625 .015 .06 18 248 1509 275 272 243 273 268 ?1 29 271 1915 0 273
 274 268 -.02625 -3469446951953615e-33 .06 18 273 1512 35 38 248 264 271 ?1 29 2
74 1917 0 264 0 271 -.01125 .015 .06 18 264 1517 34 277 273 265 274 ?1 81 1 34 2
024 28 264 0 0 275 30 280 17 277 0 279 276 25 264 56 278 0 281 +15 255 279 1531
 0 25 282 0 17 276 0 279 284 277 248 283 285 0 287 -17 25 0 279 277 284 53 290 1
1 0 289 +17 56 0 286 224 281 53 277 278 0 25 -16 278 1490 288 ?277 295 285 291 0
 0 1 17 281 0 286 56 39 264 293 292 0 283 -15 286 1543 0 224 294 0 17 39 0 286 2
81 224 12 31 295 0 293 +17 293 0 296 40 283 12 281 292 0 0 +16 292 1467 300 ?293
 36 297 298 0 0 1 17 283 0 296 293 287 264 276 285 0 0 +15 296 1371 0 287 17 0 1
7 287 0 296 283 40 248 299 301 0 0 +16 285 1443 305 ?283 278 301 303 0 0 1 81 1
 305 2047 28 285 0 0 302 300 304 16 301 1451 309 ?287 285 36 310 0 0 1 30 303 18
78 0 285 310 307 0 +-.01875 .015 .06 1 2312964634635745e-31 0 30 310 1879 0 301
 308 303 0 +-.02625 .0075 .06 2312964634635745e-31 1 0 30 307 1877 0 306 303 313
 0 +-.02625 .015 .035 0 0 1 16 306 1472 315 ?272 311 314 307 0 0 1 30 313 1876 0
 314 307 312 0 +-.02625 -3469446951953615e-33 .035 0 0 1 16 314 1478 316 ?38 306
 295 313 0 0 1 30 312 1875 0 295 313 291 0 +-.01125 -3211843761886865e-34 .035 0
 0 1 16 295 1484 320 ?39 314 278 312 0 0 1 30 291 1874 0 278 312 318 0 +-.01125
 .015 .035 0 0 1 30 318 1869 0 317 291 319 0 +-3469446951953615e-33 .015 .06 1 2
312964634635745e-31 0 16 317 1572 321 ?325 323 322 318 0 0 1 30 319 1868 0 323 3
18 324 0 +-.0075 .0075 .06 1156482317317872e-31 1 0 16 323 1580 326 ?330 49 317
 319 0 0 1 30 324 1867 0 49 319 327 0 +-3469446951953615e-33 -2158154574909715e-
33 .06 -1 -2449293598294705e-31 0 16 49 1588 328 ?47 329 323 324 0 0 1 30 327 18
66 0 329 324 332 0 +.0075 .0075 .06 1734723475976805e-31 -1 0 16 329 1596 335 ?3
34 331 49 327 0 0 1 30 332 1865 0 331 327 333 0 +.0075 .015 .035 0 0 1 16 331 16
19 336 ?262 337 329 332 0 0 1 30 333 1864 0 337 332 339 0 +.0075 -32118437618868
65e-34 .035 0 0 1 16 337 1613 338 ?51 340 331 333 0 0 1 30 339 1863 0 340 333 34
2 0 +-.0075 -3995124773630745e-33 .035 0 0 1 16 340 1607 345 ?48 297 337 339 0 0
 1 30 342 1862 0 297 339 344 0 +-.0075 .015 .035 0 0 1 16 297 1601 341 ?269 292
 340 342 0 0 1 30 344 1857 0 343 342 350 0 +.02625 .0075 .06 2312964634635745e-3
1 -1 0 16 343 1725 346 ?348 347 0 344 0 0 1 30 350 1856 0 347 344 349 0 +.01875
 -2158154574909715e-33 .06 -1 -2449293598294705e-31 0 16 347 1717 351 ?355 352 3
43 350 0 0 1 30 349 1855 0 352 350 353 0 +.01125 .0075 .06 1156482317317872e-31
 1 0 16 352 1709 354 ?356 360 347 349 0 0 1 30 353 1854 0 360 349 358 0 +.01875
 .015 .06 1 2312964634635745e-31 0 16 360 1701 357 ?359 364 352 353 0 0 1 30 358
 1853 0 322 353 365 0 +.01125 .015 .035 0 0 1 16 322 1730 362 ?255 317 363 358 0
 0 1 30 365 1852 0 363 358 361 0 +.01125 -3995124773630745e-33 .035 0 0 1 16 363
 1736 368 ?260 322 370 365 0 0 1 30 361 1851 0 370 365 366 0 +.02625 -3211843761
886865e-34 .035 0 0 1 16 370 1742 369 ?367 363 364 361 0 0 1 30 366 1850 0 364 3
61 371 0 +.02625 .015 .035 0 0 1 16 364 1748 375 ?261 370 360 366 0 0 1 30 371 8
95 0 373 366 372 0 +0 .025 .05175 1 0 0 16 373 800 374 ?376 380 378 371 0 0 1 30
 372 894 0 380 371 377 0 +.02175 .025 .03 -159514802388672e-30 0 -1 16 380 805 3
79 ?381 385 373 372 0 0 1 30 377 893 0 385 372 382 0 +-693889390390723e-32 .025
 .00825 -1 0 319029604777344e-30 16 385 810 383 ?112 384 380 377 0 0 1 30 382 89
2 0 384 377 387 0 +-.02175 .025 .03 159514802388672e-30 0 1 16 384 815 390 ?389
 386 385 382 0 0 1 30 387 891 0 386 382 388 0 +-.02175 0 .05175 0 1 0 16 386 797
 391 ?201 392 384 387 0 0 1 30 388 890 0 392 387 394 0 +-.02175 0 .00825 0 1 0 1
6 392 791 393 ?395 397 386 388 0 0 1 30 394 889 0 397 388 400 0 +.02175 0 .00825
 0 1 0 16 397 785 399 ?210 396 392 394 0 0 1 30 400 888 0 396 394 398 0 +.02175
 0 .05175 0 1 0 16 396 779 405 ?211 401 397 400 0 0 1 30 398 273 0 401 400 403 0
 +0 .0225 .0025 1 0 0 16 401 216 402 ?404 406 396 398 0 0 1 30 403 272 0 410 398
 407 0 +-.0325 .0225 .06 0 0 -1 16 410 313 408 ?190 409 411 403 0 0 1 30 407 271
 0 415 403 413 0 +0 .0225 .0575 1 0 0 16 415 326 412 ?414 419 420 407 0 0 1 30 4
13 270 0 417 407 418 0 +.0325 .0225 .06 0 0 -1 16 417 495 416 ?182 423 419 413 0
 0 1 30 418 269 0 406 413 425 0 +-.0325 -693889390390723e-33 .0025 -277555756156
289e-30 -1 0 16 406 200 421 ?424 422 401 418 0 0 1 30 425 266 0 420 418 426 0 +.
0325 693889390390723e-33 .0025 -277555756156289e-30 -1 0 16 420 218 430 ?428 415
 422 425 0 0 1 30 426 265 0 411 425 427 0 +-.0325 -.025 .06 0 0 -1 16 411 317 42
9 ?178 410 423 426 0 0 1 30 427 264 0 422 426 431 0 +-693889390390723e-32 -.025
 .0025 1 0 0 16 422 204 435 ?433 420 406 427 0 0 1 30 431 263 0 423 427 432 0 +.
0325 -.025 .06 0 0 -1 16 423 491 434 ?177 411 417 431 0 0 1 30 432 262 0 419 431
 436 0 +-693889390390723e-32 -.025 .0575 1 0 0 16 419 330 440 ?437 417 415 432 0
 0 1 30 436 19 0 438 432 439 0 +-693889390390723e-32 -.025 .06 1 0 0 16 438 348
 442 ?445 444 441 436 0 0 1 30 439 112 0 409 436 443 0 +0 .025 0 1 0 0 16 409 98
6 446 ?447 449 410 439 0 0 1 30 443 111 0 449 439 448 0 +-.035 0 0 -277555756156
289e-30 -1 0 16 449 977 450 ?171 452 409 443 0 0 1 30 448 110 0 452 443 455 0 +-
693889390390723e-32 -.025 0 1 0 0 16 452 80 454 ?451 441 449 448 0 0 1 30 455 10
9 0 441 448 453 0 +.035 0 0 -277555756156289e-30 -1 0 16 441 994 460 ?170 438 45
2 455 0 0 1 30 453 134 0 444 455 456 0 +.035 -.025 .06 0 0 -1 16 444 513 458 ?45
7 459 438 453 0 0 1 30 456 135 0 459 453 461 0 +-.035 -.025 .06 0 0 -1 16 459 35
7 465 ?462 463 444 456 0 0 1 30 461 322 0 463 456 464 0 +-.0325 -693889390390723
e-33 .0525 -277555756156289e-30 -1 0 16 463 320 466 ?470 468 459 461 0 0 1 30 46
4 335 0 468 461 467 0 --.0275 763278329429795e-32 .0575 -277555756156289e-30 -1
 0 16 468 333 469 ?154 474 463 464 0 0 1 31 255 467 340 0 474 464 475 0 --.0275
 .0225 .0525 0 1 0 0 0 1 .005 16 474 338 472 ?162 473 468 467 0 0 1 30 475 353 0
 473 467 471 0 +-.03 -.025 .06 -277555756156289e-30 -1 0 16 473 1040 478 ?150 48
0 474 475 0 0 1 31 471 362 0 480 475 476 0 --.03 -.025 .055 0 1 0 0 0 1 .005 16
 480 360 479 ?142 477 473 471 0 0 1 30 476 371 0 477 471 481 0 --.035 .025 .055
 -277555756156289e-30 -1 0 16 477 369 485 ?483 482 480 476 0 0 1 31 481 383 0 48
2 476 484 0 +-.0275 -.025 .0525 0 1 0 0 0 1 .005 16 482 379 486 ?151 490 477 481
 0 0 1 30 484 487 0 490 481 488 0 +.0275 -.025 .0575 -277555756156289e-30 -1 0 1
6 490 485 487 ?489 491 482 484 0 0 1 30 488 500 0 491 484 495 0 -.0325 .0225 .05
25 -277555756156289e-30 -1 0 16 491 498 492 ?126 493 490 488 0 0 1 31 495 505 0
 493 488 494 0 -.0275 .0225 .0525 0 1 0 0 0 1 .005 16 493 503 497 ?134 500 491 4
95 0 0 1 30 494 518 0 500 495 499 0 +.035 0 .055 -277555756156289e-30 -1 0 16 50
0 1022 496 ?124 498 493 494 0 0 1 31 499 527 0 498 494 501 0 -.03 -.025 .055 0 1
 0 0 0 1 .005 16 498 525 502 ?118 504 500 499 0 0 1 30 501 536 0 504 499 503 0 -
.03 -832667268468868e-32 .06 -277555756156289e-30 -1 0 16 504 534 505 ?507 510 4
98 501 0 0 1 31 503 548 0 510 501 509 0 +.0275 -.025 .0525 0 1 0 0 0 1 .005 16 5
10 544 506 ?131 508 504 503 0 0 1 30 509 699 0 508 503 515 0 +-.02175 .0225 .06
 159514802388672e-30 0 1 16 508 697 511 ?513 512 510 509 0 0 1 30 515 703 0 512
 509 514 0 +-1650978204722755e-32 .0225 .00825 -1 0 319029604777344e-30 16 512 7
01 516 ?520 517 508 515 0 0 1 30 514 707 0 517 515 518 0 +.02175 .0225 .06 -1595
14802388672e-30 0 -1 16 517 705 519 ?521 525 512 514 0 0 1 30 518 710 0 525 514
 523 0 +0 .0225 .05175 1 0 0 16 525 708 522 ?524 529 517 518 0 0 1 30 523 982 0
 529 518 530 0 +-.035 .02 0 0 0 -1 16 529 980 527 ?528 526 525 523 0 0 1 31 530
 999 0 526 523 533 0 -.03 .02 0 0 0 1 1 0 0 .005 16 526 997 535 ?93 531 529 530
 0 0 1 31 533 1004 0 531 530 534 0 --.03 .02 0 0 0 1 1 0 0 .005 16 531 1002 532
 ?97 536 526 533 0 0 1 30 534 1013 0 536 533 540 0 +0 .025 .055 1 0 0 16 536 101
1 538 ?83 537 531 534 0 0 1 30 540 1015 0 537 534 539 0 +.03 .025 .06 0 0 -1 16
 537 1014 541 ?92 545 536 540 0 0 1 30 539 1018 0 545 540 543 0 --.03 .025 .055
 0 0 -1 16 545 1016 542 ?90 544 537 539 0 0 1 30 543 1027 0 544 539 546 0 -.035
 .02 .06 0 0 -1 16 544 1025 550 ?78 547 545 543 0 0 1 31 546 1036 0 547 543 548
 0 +.03 .02 .055 -277555756156289e-30 -1 0 1 -277555756156289e-30 0 .005 16 547
 1034 549 ?74 552 544 546 0 0 1 30 548 1045 0 552 546 555 0 -0 .02 .06 1 0 0 16
 552 1043 554 ?75 551 547 548 0 0 1 31 555 1050 0 551 548 553 0 --.03 .02 .055 2
77555756156289e-30 1 0 -1 277555756156289e-30 0 .005 16 551 1048 556 ?110 557 55
2 555 0 0 1 31 553 1108 0 311 555 559 0 +-.03 .02 .055 0 0 -1 -1 0 0 .005 16 311
 1087 558 ?560 562 306 553 0 0 1 31 559 1107 0 562 553 565 0 +-.03 .02 .055 -1 0
 0 0 0 1 .005 16 562 1084 564 ?561 563 311 559 0 0 1 31 565 1106 0 563 559 570 0
 +.03 .02 .055 -1 0 0 0 0 1 .005 16 563 1082 566 ?568 378 562 565 0 0 1 31 570 1
105 0 378 565 567 0 +.03 .02 .055 0 0 1 1 0 0 .005 16 378 1079 569 ?571 373 563
 570 0 0 1 30 567 1271 0 557 570 575 0 +.02625 607153216591883e-32 .0575 2312964
634635745e-31 -1 0 16 557 1269 572 ?250 573 551 567 0 0 1 30 575 1275 0 573 567
 574 0 +1653415255442075e-48 -675058007171229e-32 .0575 -1 -2449293598294705e-31
 0 16 573 1273 302 ?242 576 557 575 0 0 1 30 574 1279 0 576 575 580 0 +.01125 -1
301042606982606e-33 .0575 1156482317317872e-31 1 0 16 576 1277 578 ?237 577 573
 574 0 0 1 30 580 1282 0 577 574 579 0 +-3469446951953615e-33 .015 .0575 1 23129
64634635745e-31 0 16 577 1280 584 ?585 582 576 580 0 0 1 30 579 1292 0 582 580 5
83 0 +.0075 1301042606982604e-33 .0575 1734723475976805e-31 -1 0 16 582 1290 581
 ?233 588 577 579 0 0 1 30 583 1296 0 588 579 590 0 +52859541844568e-47 -2158154
574909715e-33 .0575 -1 -2449293598294705e-31 0 16 588 1294 586 ?232 589 582 583
 0 0 1 30 590 1300 0 589 583 587 0 +-.0075 867361737988404e-33 .0575 11564823173
17872e-31 1 0 16 589 1298 591 ?227 595 588 590 0 0 1 30 587 1303 0 595 590 593 0
 +-3469446951953615e-33 .015 .0575 1 2312964634635745e-31 0 16 595 1301 592 ?594
 596 589 587 0 0 1 30 593 1313 0 596 587 600 0 +-.01125 -1301042606982606e-33 .0
575 1156482317317872e-31 -1 0 16 596 1311 598 ?224 597 595 593 0 0 1 30 600 1317
 0 597 593 21 0 +-596224418550713e-48 243427092189286e-32 .0575 -1 -244929359829
4705e-31 0 16 597 1315 599 ?218 27 596 600 0 0 1 30 21 1321 0 27 600 8 0 +-.0262
5 607153216591883e-32 .0575 2312964634635745e-31 1 0 16 27 1319 601 ?214 11 597
 21 0 0 1 81 1 601 2038 28 27 0 0 599 592 605 17 214 0 602 272 603 215 604 27 0
 284 +15 602 1535 0 214 607 0 17 272 0 602 299 214 248 284 306 0 276 +17 603 0 6
02 214 299 216 38 314 0 604 -17 604 0 610 609 290 216 214 27 0 0 -17 284 0 279 2
5 276 215 272 306 0 290 -17 290 0 610 604 289 215 25 11 0 0 -15 610 1323 0 290 6
06 0 17 289 0 610 290 609 53 224 596 0 0 -17 609 0 610 289 604 219 218 597 0 0 -
17 224 0 286 39 56 219 289 596 0 31 +17 31 0 33 218 29 219 39 295 0 609 -15 33 1
539 0 218 608 0 17 218 0 33 38 31 216 609 597 0 603 +17 38 0 33 29 218 273 603 3
14 0 299 +17 299 0 602 603 272 273 287 301 0 40 -17 40 0 296 287 293 273 29 36 0
 0 +16 36 1459 611 ?40 301 292 308 0 0 1 81 1 611 2049 28 36 0 0 300 309 612 30
 308 1880 0 36 298 310 0 +-.01875 -2158154574909715e-33 .06 -1 -2449293598294705
e-31 0 30 298 1881 0 292 0 308 0 +-.01125 .0075 .06 1156482317317872e-31 -1 0 80
 7 CCCCCDI12 legal_owners0 17 1 lCZ1 28 614 613 9000 0 0 0 0 3 6 0 0 0 FFTFTFTTF
FFFFFFFF1 81 1 300 2048 28 292 0 0 305 611 615 81 1 309 2050 28 301 0 0 611 321
 617 82 255 3 612 18 14 1 81 1 321 2051 28 317 0 0 309 335 620 82 3 617 18 15 1
 81 1 335 2052 28 329 0 0 321 326 619 82 3 620 18 16 1 81 1 326 2053 28 323 0 0
 335 328 616 82 3 619 18 17 1 81 1 328 2054 28 49 0 0 326 357 618 82 3 616 18 18
 1 81 1 357 2055 28 360 0 0 328 346 625 82 3 618 18 19 1 81 1 346 2056 28 343 0
 0 357 354 621 82 3 625 18 20 1 81 1 354 2057 28 352 0 0 346 351 623 82 3 621 18
 21 1 81 1 351 2058 28 347 0 0 354 315 622 82 3 623 18 22 1 81 1 315 2059 28 306
 0 0 351 288 624 82 3 622 18 23 1 81 1 288 2060 28 278 0 0 315 320 626 82 3 624
 18 24 1 81 1 320 2061 28 295 0 0 288 316 630 82 3 626 18 25 1 81 1 316 2062 28
 314 0 0 320 341 627 82 3 630 18 26 1 81 1 341 2063 28 297 0 0 316 336 628 82 3
 627 18 27 1 81 1 336 2064 28 331 0 0 341 338 629 82 3 628 18 28 1 81 1 338 2065
 28 337 0 0 336 345 631 82 3 629 18 29 1 81 1 345 2066 28 340 0 0 338 362 635 82
 3 631 18 30 1 81 1 362 2067 28 322 0 0 345 375 633 82 3 635 18 31 1 81 1 375 20
68 28 364 0 0 362 369 632 82 3 633 18 32 1 81 1 369 2069 28 370 0 0 375 368 634
 82 3 632 18 33 1 81 1 368 2070 28 363 0 0 369 639 640 82 3 634 18 34 1 81 1 639
 2071 28 282 0 637 368 638 636 82 3 640 18 35 1 14 255 282 1544 637 ?607 643 279
 6 645 +0 0 607 643 23 81 1 637 2120 641 282 639 0 644 642 646 81 1 638 2072 28
 294 0 650 639 648 647 82 3 636 18 0 2 14 294 1556 650 ?0 608 286 6 649 +0 0 0 6
08 23 81 1 650 2123 641 294 638 0 651 0 655 81 1 648 2073 28 608 0 651 638 653 6
52 82 3 647 18 1 2 14 608 1552 651 ?294 607 33 6 654 +0 0 294 607 23 81 1 651 21
22 641 608 648 0 642 650 656 81 1 653 2074 28 607 0 642 648 660 657 82 3 652 18
 2 2 14 607 1548 642 ?608 282 602 6 658 +0 0 608 282 23 81 1 642 2121 641 607 65
3 0 637 651 659 81 1 660 2075 28 662 0 665 653 664 661 82 3 657 18 3 2 14 662 16
73 665 ?663 666 667 6 669 +0 0 663 666 23 81 1 665 2116 641 662 660 0 668 670 67
2 81 1 664 2076 28 643 0 644 660 675 674 82 3 661 18 4 2 14 643 1685 644 ?282 67
1 673 6 680 +0 0 282 671 23 81 1 644 2119 641 643 664 0 676 637 678 81 1 675 207
7 28 663 0 670 664 677 679 82 3 674 18 5 2 14 663 1677 670 ?671 662 681 6 685 +0
 0 671 662 23 81 1 670 2117 641 663 675 0 665 676 682 81 1 677 2078 28 671 0 676
 675 683 684 82 3 679 18 6 2 14 671 1681 676 ?643 663 46 6 686 +0 0 643 663 23 8
1 1 676 2118 641 671 677 0 670 644 690 81 1 683 2079 28 688 0 687 677 689 694 82
 3 684 18 7 2 14 688 1802 687 ?695 692 693 6 691 +0 0 695 692 23 81 1 687 2112 6
41 688 683 0 698 700 696 81 1 689 2080 28 666 0 668 683 699 697 82 3 694 18 8 2
 14 666 1814 668 ?662 701 705 6 703 +0 0 662 701 23 81 1 668 2115 641 666 689 0
 702 665 704 81 1 699 2081 28 695 0 700 689 706 710 82 3 697 18 9 2 14 695 1806
 700 ?701 688 708 6 707 +0 0 701 688 23 81 1 700 2113 641 695 699 0 687 702 709
 81 1 706 2082 28 701 0 702 699 711 715 82 3 710 18 10 2 14 701 1810 702 ?666 69
5 712 6 713 +0 0 666 695 23 81 1 702 2114 641 701 706 0 700 668 714 81 1 711 208
3 28 606 0 717 706 720 719 82 3 715 18 11 2 14 606 248 717 ?716 17 718 6 721 -0
 0 716 17 23 81 1 717 2089 641 606 711 0 722 724 723 81 1 720 2084 28 17 0 722 7
11 0 725 82 3 719 18 12 2 14 17 1 722 ?606 0 727 6 730 +0 0 606 0 23 81 1 722 20
88 641 17 720 0 0 717 729 82 3 725 18 13 2 80 1 641 0 726 8001 0 0 0 0 3 5 0 0 0
 FFFFTFTFFFFFFFFFF2 83 255 3 729 .615686274509804 .811764705882353 .929411764705
882 79 255 15 726 SDL/TYSA_COLOUR15 727 6 0 507 17 728 50 255 730 3 0 17 735 731
 0 +0 0 .06 0 0 1 1 0 0 13 23 49 0 0 0 0 0 0 10 17 50 735 256 0 733 721 730 0 +0
 0 .0025 0 0 1 1 0 0 50 731 108 0 732 730 734 0 +0 0 0 0 0 1 1 0 0 14 732 68 736
 ?740 737 738 6 731 -0 0 740 737 23 50 734 129 0 737 731 739 0 +.035 0 .06 1 -27
7555756156289e-30 0 277555756156289e-30 1 0 14 737 122 741 ?732 745 743 6 734 +0
 0 732 745 23 50 739 130 0 716 734 742 0 +-693889390390723e-32 -.025 .06 0 1 0 0
 0 1 14 716 124 724 ?744 606 749 6 739 -0 0 744 606 23 50 742 131 0 745 739 750
 0 +-.035 0 .06 1 -277555756156289e-30 0 277555756156289e-30 1 0 14 745 126 747
 ?737 744 748 6 742 -0 0 737 744 23 50 750 132 0 744 742 746 0 +0 .025 .06 0 1 0
 0 0 1 14 744 128 753 ?745 716 755 6 750 +0 0 745 716 23 51 746 405 0 751 750 75
4 0 +-.0275 -208166817117217e-32 .0525 -277555756156289e-30 -1 0 .005 1 -2775557
56156289e-30 0 14 751 393 752 ?756 733 760 6 746 -0 0 756 733 23 51 754 426 0 75
6 746 758 0 +-.03 832667268468868e-32 .055 277555756156289e-30 1 0 .005 -1 27755
5756156289e-30 0 14 756 414 757 ?759 751 761 6 754 +0 0 759 751 23 51 758 570 0
 759 754 765 0 +.0275 -763278329429795e-32 .0525 277555756156289e-30 1 0 .005 -1
 277555756156289e-30 0 14 759 558 763 ?762 756 764 6 758 -0 0 762 756 23 51 765
 591 0 762 758 766 0 +.03 1387778780781446e-33 .055 -277555756156289e-30 -1 0 .0
05 1 -277555756156289e-30 0 14 762 579 770 ?767 759 768 6 765 +0 0 767 759 23 51
 766 1104 0 692 765 769 0 +-.03 .02 .06 0 0 1 .005 1 0 0 14 692 1072 698 ?688 77
2 775 6 766 +0 0 688 772 23 53 255 769 1103 0 772 766 774 0 +-.03 .02 .055 .005
 0 1 0 0 0 1 14 772 1070 771 ?692 773 776 6 769 +0 0 692 773 23 51 774 1102 0 77
3 769 20 0 +0 .02 .055 1 0 0 .005 0 0 -1 14 773 1068 777 ?772 779 778 6 774 +0 0
 772 779 23 53 20 1101 0 779 774 7 0 +.03 .02 .055 .005 0 1 0 0 0 1 14 779 1066
 780 ?773 19 782 6 20 +0 0 773 19 23 81 1 780 2108 641 779 785 0 784 777 781 14
 19 1064 784 ?779 783 790 6 7 +0 0 779 783 23 15 782 1067 0 786 779 0 17 786 0 7
82 571 788 76 74 547 0 0 -17 571 0 782 788 786 79 787 378 0 568 +17 788 0 782 78
6 571 71 568 563 0 789 -17 74 0 768 791 795 71 786 547 0 507 +15 768 580 0 795 7
62 0 17 791 0 768 792 74 116 507 504 0 0 -17 795 0 768 74 792 76 124 500 0 787 -
17 507 0 727 75 445 71 791 504 0 788 +17 75 0 727 150 507 69 789 552 0 793 +17 4
45 0 727 507 150 116 794 438 0 791 +17 150 0 727 445 75 143 793 473 0 796 +17 79
4 0 749 142 118 143 445 438 0 0 -15 749 123 0 800 716 798 17 142 0 749 462 794 1
39 796 480 0 797 +17 118 0 749 794 800 116 792 498 0 445 +17 800 0 749 118 451 1
20 457 444 0 0 -17 792 0 768 795 791 120 118 498 0 800 -17 451 0 749 800 462 163
 799 452 0 0 +17 457 0 743 804 124 163 800 444 0 451 +15 743 121 0 804 737 0 17
 804 0 743 78 457 87 170 441 0 805 -17 124 0 743 457 78 120 795 500 0 792 +17 78
 0 743 124 804 76 805 544 0 795 +17 805 0 790 802 787 87 78 544 0 0 -15 790 1065
 0 787 19 0 17 802 0 790 803 805 95 93 526 0 0 -17 787 0 790 805 803 76 571 378
 0 786 -17 803 0 790 787 802 79 92 537 0 571 -17 92 0 755 801 83 95 803 537 0 44
7 +15 755 1008 0 801 744 808 17 801 0 755 90 92 96 447 409 0 810 -17 83 0 755 92
 90 79 806 536 0 803 +17 447 0 738 93 97 95 801 409 0 802 +15 738 75 0 809 732 0
 17 93 0 738 170 447 87 802 526 0 804 +17 97 0 738 447 809 96 103 531 0 801 +17
 809 0 738 97 799 99 171 449 0 0 -17 103 0 775 807 810 99 97 531 0 528 -15 775 1
073 0 560 692 0 17 807 0 775 560 103 102 528 529 0 0 -17 810 0 775 103 560 96 90
 545 0 0 -17 528 0 748 171 483 99 807 529 0 809 +15 748 125 0 483 745 0 17 171 0
 748 797 528 169 809 449 0 462 +17 483 0 748 528 797 102 811 477 0 815 +17 797 0
 748 483 171 139 462 459 0 811 -17 811 0 761 796 110 139 483 477 0 0 -17 815 0 7
76 813 561 102 560 311 0 807 -15 776 1071 0 813 772 0 17 813 0 776 561 815 69 11
0 551 0 0 -17 561 0 776 815 813 82 812 562 0 560 +17 560 0 775 810 807 82 815 31
1 0 0 +17 812 0 778 789 806 69 561 562 0 813 -15 778 1069 0 812 773 0 17 789 0 7
78 568 812 71 75 552 0 0 -17 806 0 778 812 568 82 83 536 0 561 -17 568 0 778 806
 789 79 788 563 0 0 +17 110 0 761 811 793 102 813 551 0 483 +15 761 415 0 793 75
6 0 17 793 0 761 110 796 69 150 473 0 812 -17 796 0 761 793 811 143 142 480 0 79
4 -17 462 0 749 451 142 169 797 459 0 799 +17 799 0 738 809 170 169 451 452 0 0
 -17 170 0 738 799 93 163 804 441 0 457 +17 90 0 755 83 801 82 810 545 0 806 +15
 808 730 0 814 744 0 17 814 0 808 816 820 196 376 373 0 0 -17 816 0 808 818 814
 107 389 384 0 0 -17 820 0 808 814 818 208 381 380 0 0 -17 376 0 817 819 201 208
 814 373 0 820 +15 817 843 0 201 767 0 17 819 0 817 821 376 187 211 396 0 524 -1
7 201 0 817 376 821 196 113 386 0 389 +17 821 0 817 201 819 115 524 525 0 513 -1
7 113 0 825 198 389 115 201 386 0 821 -17 389 0 825 113 395 196 816 384 0 814 +1
5 825 855 0 395 783 0 17 395 0 825 389 198 107 822 392 0 816 +17 198 0 825 395 1
13 199 513 508 0 822 -17 822 0 823 194 112 199 395 392 0 520 -15 823 851 0 210 8
24 0 17 194 0 823 210 822 195 520 512 0 827 -17 112 0 823 822 210 107 818 385 0
 395 +17 520 0 830 513 521 199 194 512 0 0 +15 830 694 0 513 740 829 17 513 0 83
0 524 520 115 198 508 0 0 +17 521 0 830 520 524 195 191 517 0 0 +17 524 0 830 52
1 513 187 821 525 0 0 +17 191 0 826 211 827 187 521 517 0 819 -15 826 847 0 211
 828 0 17 211 0 826 381 191 208 819 396 0 376 +17 827 0 826 191 381 195 210 397
 0 521 -17 381 0 826 827 211 204 820 380 0 818 +17 210 0 823 112 194 204 827 397
 0 381 +17 818 0 808 820 816 204 112 385 0 0 -14 828 860 831 ?824 767 826 6 832
 -0 0 824 767 23 81 1 831 2104 641 828 834 0 833 835 837 14 824 864 835 ?783 828
 823 6 840 -0 0 783 828 23 14 767 856 833 ?828 762 817 6 839 -0 0 828 762 23 50
 832 883 0 828 840 839 0 +.02175 0 .03 1 0 -159514802388672e-30 -159514802388672
e-30 0 -1 50 840 884 0 824 836 832 0 +-693889390390723e-32 0 .00825 -31902960477
7344e-30 0 -1 -1 0 319029604777344e-30 50 839 882 0 767 832 838 0 +0 0 .05175 0
 0 1 1 0 0 50 838 260 0 740 839 845 0 +0 .0225 .06 0 1 0 0 0 1 14 740 236 841 ?8
43 732 830 6 838 -0 0 843 732 23 50 845 259 0 843 838 842 0 +-.0325 -69388939039
0723e-33 .06 1 -277555756156289e-30 0 277555756156289e-30 1 0 14 843 239 844 ?84
6 740 850 6 845 +0 0 846 740 23 50 842 258 0 846 845 721 0 +.0325 69388939039072
3e-33 .06 1 -277555756156289e-30 0 277555756156289e-30 1 0 14 846 245 847 ?733 8
43 848 6 842 -0 0 733 843 23 50 721 257 0 606 842 735 0 +0 0 .0575 0 0 1 1 0 0 8
1 1 847 2097 641 846 849 0 844 851 855 14 733 251 851 ?751 846 853 6 735 +0 0 75
1 846 23 15 848 247 0 852 846 0 17 852 0 848 126 428 128 177 423 0 854 -17 126 0
 848 182 852 121 854 491 0 859 +17 428 0 848 852 182 174 860 420 0 0 +17 177 0 7
98 857 131 174 852 423 0 433 +17 854 0 764 137 858 128 126 491 0 0 -15 764 559 0
 858 759 0 17 137 0 764 856 854 136 131 510 0 489 -17 858 0 764 854 856 121 134
 493 0 0 -17 856 0 764 858 137 135 489 490 0 0 -17 134 0 829 863 859 135 858 493
 0 414 +15 829 238 0 859 740 0 17 863 0 829 162 134 155 414 415 0 865 -17 859 0
 829 134 404 121 182 417 0 858 -17 414 0 861 489 154 135 863 415 0 856 +15 861 2
50 0 414 606 864 17 489 0 861 862 414 136 856 490 0 437 +17 154 0 861 414 862 15
5 866 468 0 863 +17 862 0 861 154 489 146 437 419 0 866 -17 866 0 760 157 865 14
6 154 468 0 0 -15 760 394 0 865 751 0 17 157 0 760 870 866 156 151 482 0 470 -17
 865 0 760 866 870 155 162 474 0 0 -17 870 0 760 865 157 159 470 463 0 0 -17 162
 0 829 190 863 159 865 474 0 868 +17 190 0 829 404 162 185 868 410 0 867 +17 868
 0 850 470 867 159 190 410 0 870 -15 850 241 0 868 843 0 17 470 0 850 178 868 15
6 870 463 0 869 +17 867 0 850 868 178 185 424 406 0 871 -17 178 0 850 867 470 18
0 869 411 0 424 +17 424 0 853 433 871 180 867 406 0 857 +17 871 0 853 424 860 18
5 404 401 0 0 -15 853 253 0 871 733 0 17 860 0 853 871 433 172 428 420 0 0 -17 4
04 0 829 859 190 172 871 401 0 860 +17 433 0 853 860 424 174 857 422 0 428 +17 8
57 0 798 869 177 180 433 422 0 0 -15 798 192 0 857 716 0 17 869 0 798 151 857 15
6 178 411 0 0 -17 151 0 798 437 869 146 157 482 0 862 +17 437 0 798 131 151 136
 862 419 0 0 +17 131 0 798 177 437 128 137 510 0 852 +15 864 1281 0 875 606 610
 17 875 0 864 873 872 240 585 577 0 0 -17 873 0 864 874 875 239 237 576 0 0 -17
 872 0 864 875 874 63 250 557 0 0 -17 585 0 693 261 876 63 875 577 0 872 +15 693
 1789 0 585 688 0 17 261 0 693 880 585 256 70 364 0 877 +17 876 0 693 585 880 24
0 255 322 0 875 -17 880 0 693 876 261 247 359 360 0 356 -17 255 0 708 878 237 24
7 876 322 0 880 +15 708 1793 0 237 695 0 17 878 0 708 879 255 253 356 352 0 355
 -17 237 0 708 255 879 240 873 576 0 876 +17 879 0 708 237 878 239 260 363 0 873
 -17 260 0 712 52 242 253 879 363 0 878 +15 712 1797 0 242 701 0 17 52 0 712 882
 260 45 355 347 0 367 -17 242 0 712 260 882 239 874 573 0 879 +17 882 0 712 242
 52 243 367 370 0 874 -17 874 0 864 872 873 243 242 573 0 0 -17 367 0 705 877 25
0 45 882 370 0 348 +15 705 1801 0 250 666 0 17 877 0 705 70 367 256 348 343 0 35
9 -17 250 0 705 367 70 243 872 557 0 882 +17 348 0 728 355 359 45 877 343 0 0 +1
5 728 1329 0 356 17 885 17 355 0 728 356 348 253 52 347 0 0 +17 359 0 728 348 35
6 256 880 360 0 0 +17 356 0 728 359 355 247 878 352 0 0 +15 885 1350 0 330 17 29
6 17 330 0 885 325 47 252 884 323 0 0 +17 325 0 885 334 330 265 881 317 0 0 +17
 47 0 885 330 334 266 41 49 0 0 +17 884 0 681 883 269 266 330 323 0 47 -15 681 1
664 0 227 663 0 17 883 0 681 227 884 229 48 340 0 886 -17 269 0 681 884 227 252
 887 297 0 881 +17 227 0 681 269 883 221 886 589 0 887 +17 887 0 667 594 881 221
 269 297 0 889 -17 881 0 667 887 262 252 325 317 0 330 -15 667 1660 0 594 662 0
 17 262 0 667 881 594 265 64 331 0 888 +17 594 0 667 262 887 58 889 595 0 890 +1
7 64 0 673 233 888 58 262 331 0 594 -17 888 0 673 64 51 265 334 329 0 325 -15 67
3 1672 0 233 643 0 17 51 0 673 888 233 26 50 337 0 334 +17 334 0 885 47 325 26 8
88 329 0 0 +17 233 0 673 51 64 235 890 582 0 50 +17 50 0 46 232 41 235 51 337 0
 892 -15 46 1668 0 232 671 0 17 232 0 46 48 50 229 892 588 0 883 +17 892 0 718 8
90 886 235 232 588 0 0 -15 718 1302 0 889 606 861 17 890 0 718 889 892 58 233 58
2 0 0 -17 886 0 718 892 889 229 227 589 0 0 -17 889 0 718 886 890 221 594 595 0
 0 -17 48 0 46 41 232 266 883 340 0 884 +17 70 0 705 250 877 63 261 364 0 585 -1
7 182 0 848 428 126 172 859 417 0 404 +81 1 851 2098 641 733 895 0 847 752 894 8
1 1 895 305 28 733 0 851 430 148 891 81 1 752 2099 641 751 893 0 851 757 900 83
 3 894 .615686274509804 .811764705882353 .929411764705882 81 1 893 467 28 751 0
 752 429 896 898 81 1 757 2100 641 756 897 0 752 763 899 83 3 900 .6156862745098
04 .811764705882353 .929411764705882 81 1 897 1176 28 756 0 757 901 905 902 81 1
 763 2101 641 759 903 0 757 770 904 83 3 899 .615686274509804 .811764705882353 .
929411764705882 81 1 903 632 28 759 0 763 440 849 906 81 1 770 2102 641 762 910
 0 763 833 908 83 3 904 .615686274509804 .811764705882353 .929411764705882 81 1
 910 1178 28 762 0 770 905 907 909 81 1 833 2103 641 767 914 0 770 831 915 83 3
 908 .615686274509804 .811764705882353 .929411764705882 81 1 914 964 28 767 0 83
3 912 913 911 83 3 915 .615686274509804 .811764705882353 .929411764705882 81 1 9
12 963 28 783 0 918 920 914 916 81 1 913 966 28 740 0 841 914 105 919 82 3 911 1
3 3 2 81 1 841 2095 641 740 913 0 736 844 917 81 1 105 1139 28 99 0 0 913 98 921
 82 3 919 13 5 2 81 1 98 1140 28 96 0 0 105 86 925 82 3 921 14 0 0 81 1 86 1141
 28 87 0 0 98 94 923 82 3 925 14 1 0 81 1 94 1142 28 95 0 0 86 106 922 82 3 923
 14 2 0 81 1 106 1143 28 102 0 0 94 89 924 82 3 922 14 3 0 81 1 89 1144 28 82 0
 0 106 68 926 82 3 924 14 4 0 81 1 68 1145 28 69 0 0 89 85 930 82 3 926 14 5 0 8
1 1 85 1146 28 79 0 0 68 77 928 82 3 930 14 6 0 81 1 77 1147 28 76 0 0 85 72 927
 82 3 928 14 7 0 81 1 72 1148 28 71 0 0 77 532 929 82 3 927 14 8 0 81 1 532 1149
 28 531 0 0 72 535 931 82 3 929 14 9 0 81 1 535 1150 28 526 0 0 532 558 935 82 3
 931 14 0 1 81 1 558 1151 28 311 0 0 535 556 932 82 3 935 14 1 1 81 1 556 1152 2
8 551 0 0 558 564 933 82 3 932 14 2 1 81 1 564 1153 28 562 0 0 556 527 934 82 3
 933 14 3 1 81 1 527 1154 28 529 0 0 564 542 937 82 3 934 14 4 1 81 1 542 1155 2
8 545 0 0 527 569 940 82 3 937 14 5 1 81 1 569 1156 28 378 0 0 542 566 939 82 3
 940 14 6 1 81 1 566 1157 28 563 0 0 569 549 936 82 3 939 14 7 1 81 1 549 1158 2
8 547 0 0 566 550 938 82 3 936 14 8 1 81 1 550 1159 28 544 0 0 549 541 941 82 3
 938 14 9 1 81 1 541 1160 28 537 0 0 550 554 942 82 3 941 14 10 1 81 1 554 1161
 28 552 0 0 541 538 944 82 3 942 14 11 1 81 1 538 1162 28 536 0 0 554 446 943 82
 3 944 14 12 1 81 1 446 1163 28 409 0 0 538 450 945 82 3 943 14 13 1 81 1 450 11
64 28 449 0 0 446 460 947 82 3 945 14 14 1 81 1 460 1165 28 441 0 0 450 478 950
 82 3 947 14 15 1 81 1 478 1166 28 473 0 0 460 485 949 82 3 950 14 16 1 81 1 485
 1167 28 477 0 0 478 496 946 82 3 949 14 17 1 81 1 496 1168 28 500 0 0 485 505 9
48 82 3 946 14 18 1 81 1 505 1169 28 504 0 0 496 955 951 82 3 948 14 19 1 81 1 9
55 1170 28 772 0 771 505 953 952 82 3 951 14 20 1 81 1 771 2110 641 772 955 0 77
7 698 954 81 1 953 1171 28 692 0 698 955 785 956 82 3 952 14 0 2 81 1 698 2111 6
41 692 953 0 771 687 960 81 1 785 1172 28 779 0 780 953 957 958 82 3 956 14 1 2
 81 1 957 1173 28 19 0 784 785 959 961 82 3 958 14 2 2 81 1 784 2107 641 19 957
 0 918 780 965 81 1 959 1174 28 773 0 777 957 901 963 82 3 961 14 3 2 81 1 777 2
109 641 773 959 0 780 771 962 81 1 901 1175 28 732 0 736 959 897 964 82 3 963 14
 4 2 81 1 736 2094 641 732 901 0 741 841 969 82 3 964 14 5 2 81 1 741 2093 641 7
37 907 0 747 736 970 83 3 969 .615686274509804 .811764705882353 .929411764705882
 81 1 907 1179 28 737 0 741 910 967 968 81 1 747 2092 641 745 905 0 753 741 966
 83 3 970 .615686274509804 .811764705882353 .929411764705882 81 1 905 1177 28 74
5 0 747 897 910 973 81 1 753 2091 641 744 967 0 724 747 975 83 3 966 .6156862745
09804 .811764705882353 .929411764705882 81 1 967 1181 28 744 0 753 907 59 971 81
 1 724 2090 641 716 974 0 717 753 972 83 3 975 .615686274509804 .811764705882353
 .929411764705882 81 1 974 639 28 716 0 724 849 192 976 83 3 972 .61568627450980
4 .811764705882353 .929411764705882 81 1 849 634 28 846 0 847 903 974 980 81 1 1
92 941 28 195 0 0 974 189 978 82 3 976 9 8 2 81 1 189 942 28 187 0 0 192 197 977
 82 3 978 13 0 0 81 1 197 943 28 199 0 0 189 111 979 82 3 977 13 1 0 81 1 111 94
4 28 115 0 0 197 209 981 82 3 979 13 2 0 81 1 209 945 28 208 0 0 111 206 985 82
 3 981 13 3 0 81 1 206 946 28 204 0 0 209 109 983 82 3 985 13 4 0 81 1 109 947 2
8 107 0 0 206 205 982 82 3 983 13 5 0 81 1 205 948 28 196 0 0 109 379 984 82 3 9
82 13 6 0 81 1 379 949 28 380 0 0 205 383 986 82 3 984 13 7 0 81 1 383 950 28 38
5 0 0 379 390 990 82 3 986 13 0 1 81 1 390 951 28 384 0 0 383 374 987 82 3 990 1
3 1 1 81 1 374 952 28 373 0 0 390 519 988 82 3 987 13 2 1 81 1 519 953 28 517 0
 0 374 516 989 82 3 988 13 3 1 81 1 516 954 28 512 0 0 519 511 992 82 3 989 13 4
 1 81 1 511 955 28 508 0 0 516 522 995 82 3 992 13 5 1 81 1 522 956 28 525 0 0 5
11 405 994 82 3 995 13 6 1 81 1 405 957 28 396 0 0 522 399 991 82 3 994 13 7 1 8
1 1 399 958 28 397 0 0 405 393 993 82 3 991 13 8 1 81 1 393 959 28 392 0 0 399 3
91 996 82 3 993 13 9 1 81 1 391 960 28 386 0 0 393 834 997 82 3 996 13 10 1 81 1
 834 961 28 828 0 831 391 920 999 82 3 997 13 11 1 81 1 920 962 28 824 0 835 834
 912 998 82 3 999 13 0 2 81 1 835 2105 641 824 920 0 831 918 1000 82 3 998 13 1
 2 81 1 918 2106 641 783 912 0 835 784 1002 83 3 1000 .615686274509804 .81176470
5882353 .929411764705882 14 783 868 918 ?19 824 825 6 836 -0 0 19 824 23 83 3 10
02 .615686274509804 .811764705882353 .929411764705882 50 836 885 0 783 703 840 0
 +-.02175 0 .03 -1 0 159514802388672e-30 159514802388672e-30 0 1 50 703 1832 0 6
66 713 836 0 +.02625 .0075 .035 -1 -2312964634635745e-31 0 2312964634635745e-31
 -1 0 50 713 1833 0 701 707 703 0 +.01875 -2158154574909715e-33 .035 -2449293598
294705e-31 1 0 -1 -2449293598294705e-31 0 50 707 1834 0 695 691 713 0 +.01125 .0
075 .035 1 -1156482317317872e-31 0 1156482317317872e-31 1 0 50 691 1835 0 688 66
9 707 0 +.01875 .015 .035 2312964634635745e-31 -1 0 1 2312964634635745e-31 0 50
 669 1838 0 662 685 691 0 +-3469446951953615e-33 .015 .035 2312964634635745e-31
 -1 0 1 2312964634635745e-31 0 50 685 1839 0 663 686 669 0 +-.0075 .0075 .035 1
 -1156482317317872e-31 0 1156482317317872e-31 1 0 50 686 1840 0 671 680 685 0 +-
3469446951953615e-33 -2158154574909715e-33 .035 -2449293598294705e-31 1 0 -1 -24
49293598294705e-31 0 50 680 1841 0 643 649 686 0 +.0075 .0075 .035 -1 -173472347
5976805e-31 0 1734723475976805e-31 -1 0 50 649 1844 0 294 654 680 0 +-.01125 .00
75 .035 -1 -1156482317317872e-31 0 1156482317317872e-31 -1 0 50 654 1845 0 608 6
58 649 0 +-.01875 -2158154574909715e-33 .035 -2449293598294705e-31 1 0 -1 -24492
93598294705e-31 0 50 658 1846 0 607 645 654 0 +-.02625 .0075 .035 1 -23129646346
35745e-31 0 2312964634635745e-31 1 0 50 645 1847 0 282 0 658 0 +-.01875 .015 .03
5 2312964634635745e-31 -1 0 1 2312964634635745e-31 0 82 3 980 9 3 2 81 1 59 2011
 28 53 0 0 967 212 1005 82 3 971 14 11 2 81 1 212 2012 28 215 0 0 59 225 1004 82
 3 1005 18 0 0 81 1 225 2013 28 219 0 0 212 217 1001 82 3 1004 18 1 0 81 1 217 2
014 28 216 0 0 225 62 1003 82 3 1001 18 2 0 81 1 62 2015 28 58 0 0 217 226 1010
 82 3 1003 18 3 0 81 1 226 2016 28 221 0 0 62 231 1006 82 3 1010 18 4 0 81 1 231
 2017 28 235 0 0 226 230 1008 82 3 1006 18 5 0 81 1 230 2018 28 229 0 0 231 67 1
007 82 3 1008 18 6 0 81 1 67 2019 28 63 0 0 230 238 1009 82 3 1007 18 7 0 81 1 2
38 2020 28 240 0 0 67 246 1011 82 3 1009 18 8 0 81 1 246 2021 28 243 0 0 238 245
 1015 82 3 1011 18 9 0 81 1 245 2022 28 239 0 0 246 275 1012 82 3 1015 18 10 0 8
1 1 275 2023 28 248 0 0 245 34 1013 82 3 1012 18 11 0 82 3 1013 18 12 0 82 3 973
 14 7 2 82 3 968 14 9 2 83 3 962 .615686274509804 .811764705882353 .929411764705
882 83 3 965 .615686274509804 .811764705882353 .929411764705882 83 3 960 .615686
274509804 .811764705882353 .929411764705882 83 3 954 .615686274509804 .811764705
882353 .929411764705882 81 1 844 2096 641 843 896 0 841 847 1014 83 3 917 .61568
6274509804 .811764705882353 .929411764705882 81 1 896 473 28 843 0 844 893 125 1
016 83 3 1014 .615686274509804 .811764705882353 .929411764705882 81 1 125 608 28
 120 0 0 896 119 1020 82 3 1016 8 7 2 81 1 119 610 28 116 0 0 125 130 1018 82 3
 1020 9 1 0 81 1 130 611 28 121 0 0 119 129 1017 82 3 1018 9 3 0 81 1 129 612 28
 128 0 0 130 133 1019 82 3 1017 9 4 0 81 1 133 613 28 135 0 0 129 138 1024 82 3
 1019 9 5 0 81 1 138 614 28 136 0 0 133 502 1025 82 3 1024 9 6 0 81 1 502 618 28
 498 0 0 138 492 1022 82 3 1025 9 7 0 81 1 492 619 28 491 0 0 502 497 1023 82 3
 1022 9 3 1 81 1 497 620 28 493 0 0 492 487 1021 82 3 1023 9 4 1 81 1 487 621 28
 490 0 0 497 506 1028 82 3 1021 9 5 1 81 1 506 622 28 510 0 0 487 458 1030 82 3
 1028 9 6 1 81 1 458 624 28 444 0 0 506 416 1026 82 3 1030 9 7 1 81 1 416 625 28
 417 0 0 458 434 1029 82 3 1026 9 9 1 81 1 434 626 28 423 0 0 416 442 1027 82 3
 1029 9 10 1 81 1 442 628 28 438 0 0 434 412 1031 82 3 1027 9 11 1 81 1 412 629
 28 415 0 0 442 440 1035 82 3 1031 9 13 1 81 1 440 630 28 419 0 0 412 903 1033 8
2 3 1035 9 14 1 82 3 1033 9 15 1 82 3 916 13 2 2 82 3 909 14 8 2 82 3 906 9 1 2
 82 3 902 14 6 2 81 1 429 463 28 411 0 0 408 893 1032 82 3 898 8 1 2 81 1 408 46
2 28 410 0 0 465 429 1034 82 3 1032 8 13 1 81 1 465 459 28 459 0 0 486 408 1036
 82 3 1034 8 12 1 81 1 486 457 28 482 0 0 466 465 1040 82 3 1036 8 9 1 81 1 466
 456 28 463 0 0 469 486 1038 82 3 1040 8 7 1 81 1 469 455 28 468 0 0 472 466 103
7 82 3 1038 8 6 1 81 1 472 454 28 474 0 0 479 469 1039 82 3 1037 8 5 1 81 1 479
 453 28 480 0 0 158 472 1041 82 3 1039 8 4 1 81 1 158 449 28 156 0 0 147 479 104
5 82 3 1041 8 3 1 81 1 147 448 28 146 0 0 165 158 1042 82 3 1045 8 7 0 81 1 165
 447 28 159 0 0 152 147 1043 82 3 1042 8 6 0 81 1 152 446 28 155 0 0 145 165 104
4 82 3 1043 8 5 0 81 1 145 445 28 139 0 0 148 152 1047 82 3 1044 8 4 0 81 1 148
 444 28 143 0 0 895 145 1050 82 3 1047 8 3 0 82 3 1050 8 2 0 81 1 430 302 28 420
 0 0 421 895 1049 82 3 891 7 1 2 81 1 421 300 28 406 0 0 435 430 1046 82 3 1049
 7 10 1 81 1 435 298 28 422 0 0 402 421 1048 82 3 1046 7 8 1 81 1 402 296 28 401
 0 0 175 435 1051 82 3 1048 7 6 1 81 1 175 290 28 174 0 0 176 402 1052 82 3 1051
 7 4 1 81 1 176 288 28 180 0 0 183 175 1054 82 3 1052 7 6 0 81 1 183 286 28 172
 0 0 186 176 1053 82 3 1054 7 4 0 81 1 186 284 28 185 0 0 1055 183 1057 82 3 105
3 7 2 0 81 1 1055 178 28 1 0 1060 454 186 1059 82 3 1057 7 0 0 81 1 1060 2085 10
56 1 1055 14 0 0 1058 81 1 454 166 28 452 0 0 167 1055 1065 82 3 1059 6 0 3 81 1
 167 158 28 163 0 0 168 454 1061 82 3 1065 6 6 1 81 1 168 156 28 169 0 0 0 167 1
063 82 3 1061 6 6 0 82 3 1063 6 4 0 80 1 1056 1062 1064 8038 0 0 0 0 0 0 0 0 0 T
TTTTTTTTTTTTFTFT10 81 1 14 2086 1062 1 1060 2 0 0 1066 98 255 6 1058 80 97 114 1
16 32 49 80 1 1062 1070 1067 8017 0 0 0 0 0 0 0 0 0 TTTTTTTTTTTTTFTFT3 84 255 6
 1066 Part 179 13 1067 SDL/TYSA_NAME79 14 1064 SDL/TYSA_UNAME83 3 855 .615686274
509804 .811764705882353 .929411764705882 83 3 837 .615686274509804 .811764705882
353 .929411764705882 83 3 781 .615686274509804 .811764705882353 .929411764705882
 83 3 723 .615686274509804 .811764705882353 .929411764705882 83 3 714 .615686274
509804 .811764705882353 .929411764705882 83 3 709 .615686274509804 .811764705882
353 .929411764705882 83 3 704 .615686274509804 .811764705882353 .929411764705882
 83 3 696 .615686274509804 .811764705882353 .929411764705882 83 3 690 .615686274
509804 .811764705882353 .929411764705882 83 3 682 .615686274509804 .811764705882
353 .929411764705882 83 3 678 .615686274509804 .811764705882353 .929411764705882
 83 3 672 .615686274509804 .811764705882353 .929411764705882 83 3 659 .615686274
509804 .811764705882353 .929411764705882 83 3 656 .615686274509804 .811764705882
353 .929411764705882 83 3 655 .615686274509804 .811764705882353 .929411764705882
 83 3 646 .615686274509804 .811764705882353 .929411764705882 82 3 615 18 13 1 79
 9 613 BTI/DetId81 1 599 2037 28 597 0 0 598 601 1068 81 1 592 2039 28 595 0 0 6
01 581 1069 82 3 605 18 3 1 81 1 581 2040 28 582 0 0 592 591 1071 82 3 1069 18 4
 1 81 1 591 2041 28 589 0 0 581 586 1075 82 3 1071 18 5 1 81 1 586 2042 28 588 0
 0 591 584 1073 82 3 1075 18 6 1 81 1 584 2043 28 577 0 0 586 572 1072 82 3 1073
 18 7 1 81 1 572 2044 28 557 0 0 584 578 1074 82 3 1072 18 8 1 81 1 578 2045 28
 576 0 0 572 302 1079 82 3 1074 18 9 1 81 1 302 2046 28 573 0 0 578 305 1080 82
 3 1079 18 10 1 82 3 1080 18 11 1 81 1 598 2036 28 596 0 0 24 599 1077 82 3 1068
 18 2 1 81 1 24 2035 28 11 0 0 258 598 1078 82 3 1077 18 1 1 81 1 258 2034 28 25
3 0 0 55 24 1076 82 3 1078 18 0 1 81 1 55 2033 28 45 0 0 257 258 1083 82 3 1076
 18 23 0 81 1 257 2032 28 256 0 0 254 55 1085 82 3 1083 18 22 0 81 1 254 2031 28
 247 0 0 42 257 1081 82 3 1085 18 21 0 81 1 42 2030 28 266 0 0 37 254 1084 82 3
 1081 18 20 0 82 3 1084 18 19 0 82 3 304 18 12 1 82 3 280 18 13 0 81 1 35 2026 2
8 273 0 0 30 267 1082 81 1 267 2027 28 252 0 0 35 43 1086 82 3 1082 18 15 0 81 1
 43 2028 28 265 0 0 267 37 1090 82 3 1086 18 16 0 82 3 1090 18 17 0 82 3 44 18 1
8 0 82 3 32 18 14 0 19 18 138 0 1 0 10 6 0 S0 74 4 CI16 index_map_offset0 0 1 dC
CZ20 16 5 0 0 720 1060 14 2 650 0 0 0 0 0 0 0 0 0 0 0 0 0 0 0 80 1 13 641 1088 8
040 0 0 0 0 3 5 0 0 0 TTTFFFFFFFFFFFFFF2 83 3 15 .615686274509804 .8117647058823
53 .929411764705882 79 17 1088 SDL/TYSA_COLOUR_21 0 
